# xmcd
#
# Track frame offsets:
#	150
#	23343
#	44863
#	60609
#	78129
#	96669
#	117743
#	138791
#	155259
#	169714
#	195064
#	221912
#	239160
#	257983
#	276571
#	296614
#	323249
#
# Disc length: 4766 seconds
#
# Revision: 1
# Processed by: cddbd v1.5.1PL2 Copyright (c) Steve Scherf et al.
# Submitted via: audiograbber 1.83.01
#
DISCID=03129c11
DTITLE=Jeff Buckley - Sketches For My Sweetheart The Drunk
DYEAR=1900
DGENRE=
TTITLE0=The Sky is a Landfill
TTITLE1=Everybody Here Wants You
TTITLE2=Opened Once
TTITLE3=Nightmares By The Sea
TTITLE4=Yard of Blonde Girl
TTITLE5=Witches Rave
TTITLE6=New Years Prayer
TTITLE7=Havent You Heard
TTITLE8=I know we could be so happy baby (if we wanted to be)
TTITLE9=Murder Suicide Meteor Slave
TTITLE10=Back in NYC
TTITLE11=Demon John
TTITLE12=Your Flesh is so nice
TTITLE13=Jewel Box
TTITLE14=Satisfied Mind
TTITLE15=Gunshot Glitter
TTITLE16=Thousand Fold
EXTD=
EXTT0=
EXTT1=
EXTT2=
EXTT3=
EXTT4=
EXTT5=
EXTT6=
EXTT7=
EXTT8=
EXTT9=
EXTT10=
EXTT11=
EXTT12=
EXTT13=
EXTT14=
EXTT15=
EXTT16=
PLAYORDER=
